<?xml version="1.0" standalone="no"?>
<!DOCTYPE svg PUBLIC "-//W3C//DTD SVG 20010904//EN"
 "http://www.w3.org/TR/2001/REC-SVG-20010904/DTD/svg10.dtd">
<svg version="1.0" xmlns="http://www.w3.org/2000/svg"
 width="500.000000pt" height="500.000000pt" viewBox="0 0 500.000000 500.000000"
 preserveAspectRatio="xMidYMid meet">
<metadata>
Created by potrace 1.16, written by Peter Selinger 2001-2019
</metadata>
<g transform="translate(0.000000,500.000000) scale(0.100000,-0.100000)"
fill="#000000" stroke="none">
<path d="M2050 4746 l0 -256 -165 0 c-99 0 -165 4 -165 10 0 19 -44 50 -71 50
-41 0 -58 -9 -74 -41 -24 -46 -20 -69 14 -69 16 0 31 -6 35 -15 5 -13 105 -15
821 -15 650 0 815 3 809 13 -5 8 -2 7 9 -2 15 -12 20 -11 37 4 16 14 35 17 95
16 82 -2 85 1 65 55 -27 69 -114 74 -148 9 -10 -19 -19 -20 -219 -17 -163 3
-210 7 -219 17 -8 11 -14 12 -25 2 -7 -7 -6 -3 4 9 14 17 17 42 17 154 0 132
0 134 -27 164 l-28 31 28 -24 27 -24 0 90 0 91 -70 1 -70 1 0 -255 c0 -163 -4
-255 -10 -255 -6 0 -10 71 -10 192 l0 191 -27 -24 -28 -24 28 31 c20 22 27 40
27 70 0 55 -22 74 -88 74 l-52 0 0 -255 c0 -248 -1 -255 -20 -255 -18 0 -20 7
-20 74 0 52 -4 77 -15 86 -8 6 -18 9 -22 7 -5 -3 -9 3 -9 13 0 10 4 16 9 13 4
-2 14 1 22 7 12 10 15 43 15 161 l0 149 -70 0 -71 0 1 -147 c2 -332 1 -363
-14 -363 -8 0 -16 6 -19 13 -3 9 -8 9 -23 -3 -18 -14 -18 -14 -2 5 14 17 17
45 19 164 l1 143 -29 31 -28 32 28 -24 27 -24 0 86 c0 89 -8 104 -39 75 -11
-10 -13 -10 -7 0 5 9 -6 12 -43 12 l-51 0 0 -255 c0 -163 -4 -255 -10 -255 -6
0 -10 69 -10 187 l0 186 -27 -24 -28 -24 28 31 c25 28 28 38 26 91 l-2 60 -69
2 -68 2 0 -255z"/>
<path d="M1083 4346 c-60 -19 -114 -66 -149 -128 l-29 -53 -3 -1359 c-3 -1551
-9 -1432 81 -1522 91 -90 -25 -84 1497 -84 1499 0 1403 -5 1487 73 24 22 54
59 66 82 l22 40 0 1385 c0 1360 0 1386 -20 1425 -30 62 -99 122 -158 140 -44
13 -222 15 -1401 14 -1087 0 -1359 -3 -1393 -13z m1685 -145 c295 -63 516
-184 732 -400 181 -182 286 -351 359 -581 51 -159 65 -257 65 -440 0 -239 -38
-412 -133 -616 -186 -393 -526 -675 -946 -784 -812 -210 -1624 305 -1787 1134
-28 144 -30 374 -4 521 106 593 570 1063 1156 1169 136 24 137 25 305 21 110
-3 189 -10 253 -24z m-1598 -78 c27 -16 31 -16 64 2 45 25 54 15 26 -29 l-22
-36 21 -26 c12 -15 21 -31 21 -35 0 -14 -29 -10 -55 7 -23 15 -27 15 -50 0
-24 -16 -55 -22 -55 -10 0 3 8 19 17 35 16 27 16 31 0 64 -9 20 -17 38 -17 40
0 10 23 4 50 -12z m2560 0 c27 -16 31 -16 64 2 45 24 54 15 28 -28 -20 -34
-20 -35 -1 -63 10 -16 19 -32 19 -36 0 -13 -30 -9 -55 8 -23 15 -27 15 -50 0
-25 -17 -55 -21 -55 -8 0 4 9 20 19 36 19 28 19 29 0 60 -31 50 -21 60 31 29z
m-2560 -2570 c27 -16 31 -16 64 2 45 25 54 15 26 -29 l-22 -36 21 -29 c12 -16
21 -32 21 -35 0 -12 -31 -6 -55 10 -23 15 -27 15 -50 0 -25 -17 -55 -21 -55
-8 0 4 9 20 19 36 19 28 19 29 0 60 -31 50 -21 60 31 29z m2560 0 c27 -16 31
-16 64 2 45 25 54 15 27 -30 l-21 -37 20 -28 c11 -15 20 -31 20 -34 0 -12 -31
-6 -55 10 -23 15 -27 15 -50 0 -23 -15 -55 -22 -55 -11 0 2 9 19 19 36 19 31
19 32 0 63 -31 50 -21 60 31 29z"/>
<path d="M2030 4072 l-75 -27 80 -3 c59 -2 104 3 170 20 76 19 116 23 255 23
149 0 169 -2 205 -21 35 -19 58 -21 188 -22 81 -1 147 0 147 3 0 2 -38 15 -84
29 -84 26 -85 26 -447 25 l-364 -1 -75 -26z"/>
<path d="M2355 4004 c-16 -3 -76 -14 -133 -26 -83 -17 -106 -25 -122 -46 -11
-13 -20 -33 -20 -43 0 -9 33 -56 73 -102 128 -150 196 -290 224 -455 l16 -102
81 0 c75 0 156 -14 156 -26 0 -12 -42 -64 -52 -64 -6 0 -8 11 -5 26 l4 25 -21
-20 c-26 -25 -36 -26 -36 -6 0 36 -197 5 -283 -44 -59 -34 -118 -91 -153 -147
-34 -56 -29 -29 5 32 17 28 60 79 97 112 l67 62 -49 56 c-83 97 -223 201 -383
285 -74 38 -91 43 -150 43 -124 0 -192 -53 -275 -214 -52 -99 -106 -253 -106
-299 0 -32 29 -71 53 -71 6 0 55 9 107 20 183 38 372 22 543 -48 50 -20 66
-31 61 -42 -3 -8 -11 -40 -16 -71 l-11 -57 -51 -7 c-146 -19 -432 -152 -534
-249 -56 -52 -76 -101 -76 -186 0 -69 3 -81 39 -147 48 -88 118 -184 195 -265
54 -57 61 -60 92 -54 42 8 52 22 78 109 24 79 77 188 123 257 41 60 141 164
200 207 l47 35 -22 31 c-16 23 -5 17 37 -23 47 -44 60 -51 63 -37 3 16 6 16
34 -4 24 -18 32 -19 38 -8 14 21 21 5 14 -30 -6 -28 -11 -32 -30 -28 -21 4
-26 -3 -43 -47 -44 -120 -56 -203 -56 -401 0 -178 1 -193 22 -232 31 -57 87
-109 139 -129 62 -24 326 -15 434 15 129 35 141 75 49 177 -132 144 -207 295
-236 472 l-16 97 -92 0 c-52 0 -96 3 -100 7 -10 10 34 68 52 68 9 0 13 -6 10
-14 -12 -31 108 -35 195 -5 111 37 193 111 245 219 39 80 44 206 13 293 -27
74 -76 144 -132 188 -38 31 -41 32 -53 15 -13 -17 -15 -17 -40 0 -19 13 -25
23 -21 38 3 12 6 27 6 34 0 10 8 12 29 7 37 -8 42 0 77 131 35 131 46 417 21
504 -21 70 -65 124 -131 157 -44 23 -65 27 -156 29 -58 1 -118 0 -135 -2z"/>
<path d="M2802 3955 l11 -25 199 0 c109 0 198 2 198 5 0 2 -18 14 -40 25 -35
18 -58 20 -209 20 l-171 0 12 -25z"/>
<path d="M1675 3883 c-27 -19 -65 -49 -82 -66 -32 -30 -33 -34 -33 -108 l0
-78 32 10 c18 5 57 9 85 9 l53 0 0 135 c0 74 -1 135 -2 135 -2 0 -25 -17 -53
-37z"/>
<path d="M2918 3862 c-54 -3 -58 -5 -58 -27 l0 -25 175 0 175 0 0 28 0 27
-118 0 c-64 0 -143 -1 -174 -3z"/>
<path d="M1820 3720 l0 -30 151 0 150 0 -21 30 -21 30 -130 0 -129 0 0 -30z"/>
<path d="M2870 3720 l0 -30 133 0 132 0 28 30 29 30 -161 0 -161 0 0 -30z"/>
<path d="M3232 3673 c-11 -10 -28 -45 -37 -78 -21 -74 -83 -208 -124 -269 -62
-89 -140 -165 -250 -242 -1 -2 8 -18 22 -36 50 -67 87 -166 87 -236 0 -32 0
-33 38 -27 133 23 272 75 412 155 170 97 214 155 215 280 0 66 -4 83 -34 140
-46 89 -111 179 -189 261 -70 75 -100 86 -140 52z"/>
<path d="M1820 3622 c0 -4 20 -18 45 -30 41 -20 62 -22 190 -22 80 0 145 2
145 5 0 2 -5 16 -12 30 l-11 25 -179 0 c-98 0 -178 -4 -178 -8z"/>
<path d="M1560 2825 l0 -114 83 40 82 39 3 75 3 75 -86 0 -85 0 0 -115z"/>
<path d="M1120 2900 l0 -30 175 0 175 0 0 26 c0 23 -3 25 -22 20 -59 -17 -125
-18 -156 -2 -20 10 -56 16 -102 16 l-70 0 0 -30z"/>
<path d="M3560 2900 l0 -30 141 0 140 0 -3 28 -3 27 -137 3 -138 3 0 -31z"/>
<path d="M3386 2849 c-38 -21 -72 -39 -77 -39 -8 0 -16 -107 -11 -158 l3 -34
77 7 c42 4 80 9 85 12 4 2 7 60 7 129 0 68 -3 124 -7 123 -5 -1 -39 -19 -77
-40z"/>
<path d="M1120 2780 l0 -29 175 0 175 0 0 30 0 29 -175 0 -175 0 0 -30z"/>
<path d="M3560 2780 l0 -30 140 0 140 0 0 30 0 30 -140 0 -140 0 0 -30z"/>
<path d="M1120 2666 c0 -18 7 -25 28 -29 28 -6 288 1 310 8 6 3 12 14 12 25 0
19 -6 20 -175 20 l-175 0 0 -24z"/>
<path d="M2880 2575 c-31 -60 -107 -146 -154 -172 -18 -10 -19 -13 -4 -34 24
-37 125 -135 187 -183 68 -52 209 -137 275 -167 101 -44 237 -15 305 67 68 84
181 344 183 425 1 22 -6 38 -22 51 -27 22 -46 22 -125 3 -92 -23 -240 -29
-335 -16 -77 12 -241 62 -266 82 -7 6 -22 -12 -44 -56z"/>
<path d="M2760 1985 c0 -3 7 -17 16 -30 l16 -25 192 0 191 1 -58 29 c-57 29
-63 30 -208 30 -82 0 -149 -2 -149 -5z"/>
<path d="M3400 1933 c-36 -12 -73 -23 -82 -23 -13 0 -18 -8 -19 -27 0 -16 -2
-65 -4 -110 -2 -46 0 -83 4 -83 5 0 45 35 90 78 l83 77 -4 55 -3 56 -65 -23z"/>
<path d="M2856 1846 c15 -24 20 -25 142 -28 70 -2 146 -2 170 0 37 3 42 6 42
28 l0 24 -185 0 -185 0 16 -24z"/>
<path d="M1560 1813 c1 -35 6 -43 79 -100 43 -35 81 -63 85 -63 3 0 6 33 6 74
0 73 0 73 -25 68 -40 -7 -88 6 -118 33 l-27 26 0 -38z"/>
<path d="M1820 1610 l0 -30 180 0 181 0 -23 30 -22 30 -158 0 -158 0 0 -30z"/>
<path d="M2030 1492 l65 -27 370 -3 370 -3 85 28 85 28 -80 3 c-48 2 -106 -3
-145 -12 -85 -21 -217 -36 -305 -36 -71 0 -181 23 -199 41 -6 5 -78 9 -160 8
l-151 0 65 -27z"/>
<path d="M590 4305 l0 -25 143 0 c139 1 142 1 160 25 l18 25 -161 0 -160 0 0
-25z"/>
<path d="M4066 1255 l-16 -25 160 0 160 0 0 25 0 24 -144 0 c-142 1 -144 0
-160 -24z"/>
<path d="M690 610 l0 -440 70 0 70 0 0 173 0 172 50 27 c28 16 52 28 55 28 3
0 5 -90 5 -200 l0 -200 70 0 70 0 0 440 0 440 -70 0 -70 0 0 -160 0 -160 -50
-25 c-27 -14 -52 -25 -55 -25 -3 0 -5 83 -5 185 l0 185 -70 0 -70 0 0 -440z"/>
<path d="M1238 1032 c-57 -34 -58 -44 -58 -471 l0 -391 170 0 170 0 0 65 0 65
-62 0 c-35 0 -80 3 -101 6 l-38 7 3 106 3 106 97 50 98 50 0 78 c0 42 -1 77
-3 77 -2 0 -43 -20 -92 -45 -50 -25 -93 -45 -97 -45 -5 0 -8 51 -8 113 l0 112
97 0 98 0 3 68 3 67 -128 0 c-103 0 -133 -4 -155 -18z"/>
<path d="M1663 1030 c-59 -35 -58 -29 -58 -462 l0 -398 73 0 72 0 0 158 0 159
50 27 50 27 0 -185 0 -186 70 0 70 0 0 395 c0 434 -1 439 -60 470 -46 24 -225
21 -267 -5z m187 -225 c0 -112 1 -111 -72 -143 l-28 -12 0 133 0 132 50 -3 50
-4 0 -103z"/>
<path d="M2060 985 l0 -65 48 0 c26 0 57 -3 70 -6 l22 -6 0 -369 0 -369 70 0
70 0 0 370 0 370 70 0 70 0 0 70 0 70 -210 0 -210 0 0 -65z"/>
<path d="M2608 1034 c-54 -29 -58 -50 -58 -324 0 -137 2 -250 5 -250 3 0 55
25 115 55 60 30 111 55 113 55 7 0 16 -226 10 -248 -5 -19 -12 -22 -54 -22
l-49 0 0 70 c0 39 -2 70 -5 70 -2 0 -34 -14 -70 -32 l-65 -32 0 -59 c0 -32 7
-71 14 -86 27 -52 54 -61 179 -61 102 0 117 2 142 22 52 40 55 64 55 353 -1
146 -3 265 -6 265 -2 0 -55 -27 -117 -60 -63 -33 -117 -60 -120 -60 -4 0 -7
51 -7 113 l0 112 50 -3 50 -4 0 -39 c0 -21 5 -39 10 -39 6 0 40 13 77 30 l66
30 -7 41 c-16 97 -52 119 -196 119 -73 -1 -113 -5 -132 -16z"/>
<path d="M3040 1048 c0 -2 -3 -200 -7 -440 l-6 -438 77 0 76 0 0 394 c0 216
-3 414 -6 440 l-7 46 -63 0 c-35 0 -64 -1 -64 -2z"/>
<path d="M3277 968 c-4 -46 -7 -244 -7 -440 l0 -358 75 0 75 0 0 370 0 370 50
0 50 0 0 -370 0 -370 70 0 70 0 0 395 c0 437 0 439 -62 471 -42 22 -121 14
-151 -15 -30 -27 -37 -27 -37 4 0 24 -2 25 -64 25 l-63 0 -6 -82z"/>
<path d="M3760 610 l0 -440 70 0 70 0 0 111 c0 99 3 118 26 170 15 33 30 59
34 59 4 0 38 -77 75 -170 l68 -170 74 0 c40 0 73 2 73 4 0 1 -47 119 -105 261
l-105 259 80 172 c44 95 80 175 80 178 0 3 -33 6 -74 6 l-73 0 -68 -147 c-37
-82 -72 -152 -76 -158 -5 -5 -9 61 -9 148 l0 157 -70 0 -70 0 0 -440z"/>
</g>
</svg>
